#!OML:ASF E:/inclinewalkrobotboard/Project1/Captureday1/Session1/subject1.ASF
:FULLY-SPECIFIED
:DEGREES
201
root 0 0 0 -0.391047796811559 -2.0296270910911662 -3.8802370965015625
lowerback 16.494168129741844 1.1048830863762205 -0.11684724639779265
upperback 0.6855314663585793 1.448451318057819 0.3294139414043836
thorax -8.586465967899578 0.686132951295473 0.05132988815715933
lowerneck -7.470812462952889 -3.2683793788207014 1.2890702937622756
upperneck -5.808777089982435 -4.243904355166127 1.7504977870155156
head -0.670497381656304 -2.1976622897736395 0.24383132432958327
rclavicle -3.808667262584552E-16 1.5860960878112036E-17
rhumerus 12.07051233288302 0.4656834723054928 -39.47202224810873
rradius 118.6844891786403
rwrist -30.758612503195003
rhand -11.692160379470243 -36.491654460479666
rfingers 7.125019999999963
rthumb 14.391905704081408 -65.9095700474891
lclavicle -4.07278165362064E-16 -4.643800951103071E-16
lhumerus -43.328090184685706 -0.3878200908559707 83.14938714040753
lradius 45.24858114330012
lwrist 1.9491607596139038
lhand -15.601424944059065 -12.152226533331687
lfingers 7.1250199999999335
lthumb 10.541359574602124 16.983646617119565
rfemur -2.780660440047936 1.0347540091031842 5.560778002897942
rtibia 8.326914307884033
rfoot -1.5674773128543817 -1.356717121217343
rtoes 0.7973151967268681
lfemur -6.5129600202216835 -3.571575284032814 -12.231235404094706
ltibia 27.403418391993142
lfoot -19.274593617789392 7.977057265072329
ltoes -43.32806067518412
202
root 0 0 0 -0.390616755573985 -2.029787694546733 -3.88047404956947
lowerback 16.49489632398339 1.1044121703303067 -0.11705600780711434
upperback 0.6849822161479379 1.4477490060601221 0.32936825665981995
thorax -8.58745605247796 0.6857958623879152 0.0514335392788815
lowerneck -7.469739901765578 -3.2676885346305595 1.2905214400938645
upperneck -5.8156953440574135 -4.242806748899806 1.7492793667458217
head -0.6731087274687066 -2.1972712922532818 0.2434088816086957
rclavicle -3.8059119336179555E-16 1.6043771255821322E-17
rhumerus 12.074672204004344 0.4713882140006209 -39.46702857297102
rradius 118.6987210175973
rwrist -30.76520045829358
rhand -11.68999562085895 -36.504993186324214
rfingers 7.125019999999963
rthumb 14.393942864080506 -65.9224088207271
lclavicle -4.073371002564054E-16 -4.642934952677521E-16
lhumerus -43.329490278890574 -0.3881106792545731 83.14952013442209
lradius 45.25123003340132
lwrist 1.9488644059692666
lhand -15.599796991046281 -12.157332922811932
lfingers 7.1250199999999335
lthumb 10.542802065688686 16.97891892399648
rfemur -2.7839125438473946 1.036091285470529 5.567656199886965
rtibia 8.336459279283655
rfoot -1.5696129432471881 -1.3584182405934637
rtoes 0.7983268206927197
lfemur -6.512295757395904 -3.57207103055661 -12.229504283519141
ltibia 27.4018766884648
lfoot -19.27778571483674 7.979898313235129
ltoes -43.337368321205034
203
root 0 0 0 -0.38979765510638 -2.029693882499203 -3.8813416582522855
lowerback 16.493721060112602 1.104944620280996 -0.11651681346256537
upperback 0.6849855955193358 1.4484612467924678 0.3291169941409594
thorax -8.586774136565644 0.6861641045083589 0.05080739892502617
lowerneck -7.467375315478676 -3.2677087526917843 1.2907758718820488
upperneck -5.813561000526867 -4.243229158983275 1.7505065653094103
head -0.6729955509182064 -2.197344228497407 0.24377532668613838
rclavicle -3.8038083546857857E-16 1.638489769411997E-17
rhumerus 12.081410024466763 0.4798067150476495 -39.4591613325118
rradius 118.72034741032954
rwrist -30.775421194516838
rhand -11.686839673301492 -36.524738272849405
rfingers 7.125019999999963
rthumb 14.396923187811788 -65.9415972335792
lclavicle -4.0723861070556E-16 -4.639135500645259E-16
lhumerus -43.33310935668117 -0.38811249493068545 83.15024479307132
lradius 45.256603060377174
lwrist 1.9468985032433905
lhand -15.595522720199801 -12.1709621248495
lfingers 7.1250199999999335
lthumb 10.54686082805894 16.965986874326482
rfemur -2.7836854787749 1.036075197090789 5.567346433383948
rtibia 8.335408201306086
rfoot -1.5697217438432247 -1.3583404266715196
rtoes 0.7981905815330059
lfemur -6.510937510332082 -3.5730951095819075 -12.226317115607051
ltibia 27.39888404088942
lfoot -19.283555203649012 7.98494112905529
ltoes -43.354075568127996
204
root 0 0 0 -0.38913084217489446 -2.0295554502673836 -3.8821902162662068
lowerback 16.49225934781673 1.105688709284878 -0.1158725228473253
upperback 0.6849912190583659 1.449490331759429 0.32883785269808974
thorax -8.585911164656856 0.6866771866388702 0.05006705776173059
lowerneck -7.4655609617967915 -3.2680119105928616 1.2905321177398767
upperneck -5.809563728508877 -4.244113421666891 1.7522074658721567
head -0.6721166079509251 -2.1975838067669815 0.24430060691337355
rclavicle -3.802514896672868E-16 1.6607155368044837E-17
rhumerus 12.085734647996809 0.4855464277127979 -39.45399149214393
rradius 118.73487286480014
rwrist -30.782229018166266
rhand -11.684662600936484 -36.538312477178366
rfingers 7.125019999999964
rthumb 14.398985819308896 -65.9547503592996
lclavicle -4.0702441056475316E-16 -4.635270114289934E-16
lhumerus -43.33682792804024 -0.3880493049724598 83.15097079079067
lradius 45.26196723219966
lwrist 1.9448249639265778
lhand -15.591155754237352 -12.184848324253165
lfingers 7.1250199999999335
lthumb 10.551018361258238 16.95281383862401
rfemur -2.782634599440824 1.0357050680329551 5.5652628857631665
rtibia 8.331987229210306
rfoot -1.5692454931751798 -1.3578373154494257
rtoes 0.7977992536475951
lfemur -6.509450216403358 -3.5741562572663073 -12.22310696045189
ltibia 27.395718205548203
lfoot -19.28946389084958 7.990079168122719
ltoes -43.37106895111465
205
root 0 0 0 -0.39090983838418736 -2.0289906178446 -3.882100376884802
lowerback 16.491785145528745 1.1086764155043176 -0.1144195892865163
upperback 0.6865835907229569 1.4538212821651777 0.3284563002244266
thorax -8.58356156526214 0.6887287761859616 0.04837914292127388
lowerneck -7.470218819323009 -3.2720882884287104 1.2842050853510187
upperneck -5.788424528910699 -4.250554349057521 1.7586518495906476
head -0.6641359874533777 -2.2000336213654426 0.24647456324436745
rclavicle -3.794827231096396E-16 1.570194225175596E-17
rhumerus 12.079947616552666 0.46202031962345735 -39.46639764545645
rradius 118.69000738386163
rwrist -30.761068774611875
rhand -11.694761790299577 -36.484071248267426
rfingers 7.125019999999963
rthumb 14.389725935767819 -65.90193969377117
lclavicle -4.0881577123024315E-16 -4.634487140979562E-16
lhumerus -43.32753108168316 -0.38753501264290424 83.1504387958946
lradius 45.247333300233855
lwrist 1.9475648094626066
lhand -15.60076880634447 -12.154911603284871
lfingers 7.1250199999999335
lthumb 10.542043813682804 16.981411931786308
rfemur -2.776441310477213 1.0334655638632841 5.553369419201585
rtibia 8.314547697125773
rfoot -1.5649855754561774 -1.3545687500896997
rtoes 0.796600002363705
lfemur -6.5121783114881495 -3.5723096147738183 -12.229061633266987
ltibia 27.401638121262227
lfoot -19.278759963612934 7.980919585719386
ltoes -43.34026339080039
206
root 0 0 0 -0.39061450706961665 -2.0295971082467132 -3.8807875163225516
lowerback 16.493827176834145 1.1051605780628315 -0.11660632457067943
upperback 0.6850287124915466 1.4488210118961684 0.329175005704322
thorax -8.586758521413461 0.6863122482831638 0.05090000741283418
lowerneck -7.469967866850405 -3.268416889608188 1.2894162233439692
upperneck -5.810533116768497 -4.244142263531051 1.7509952644614168
head -0.6712870738986663 -2.1977291869420372 0.243965707797896
rclavicle -3.808343437182727E-16 1.5956599500877685E-17
rhumerus 12.071977952598175 0.4681873004421284 -39.47010102720463
rradius 118.69038058733886
rwrist -30.761318668432974
rhand -11.691161147013872 -36.49768172049693
rfingers 7.125019999999963
rthumb 14.392851602170245 -65.91540511357513
lclavicle -4.068549253674005E-16 -4.640281358346327E-16
lhumerus -43.33210707406196 -0.3876094151324818 83.15007188206913
lradius 45.254050250192755
lwrist 1.9468987628981846
lhand -15.59684953868782 -12.166668417708921
lfingers 7.1250199999999335
lthumb 10.545715844972998 16.969794302044328
rfemur -2.778430721134942 1.0338835587405246 5.556181442954832
rtibia 8.320099464727836
rfoot -1.5661838324763115 -1.355592016058642
rtoes 0.7965806176367074
lfemur -6.511591521623892 -3.572533082443369 -12.228472203303703
ltibia 27.400586988421058
lfoot -19.279748053307763 7.981519475082015
ltoes -43.342764377428715
207
root 0 0 0 -0.3903045074200452 -2.029843562235397 -3.880704177423665
lowerback 16.49520849256447 1.1041866383427141 -0.11718995623226358
upperback 0.6843018137511723 1.4474028282018117 0.32924741747448993
thorax -8.588325025949521 0.6856264535101179 0.0514070941721505
lowerneck -7.469281931379147 -3.267323449456164 1.2914451681461716
upperneck -5.820860238925555 -4.242250248716623 1.7486494679692857
head -0.6749191147976976 -2.1970743567773368 0.2431802868598295
rclavicle -3.805479707182844E-16 1.6100880753492124E-17
rhumerus 12.074530014887593 0.4731901853174598 -39.466591440470175
rradius 118.70145275036839
rwrist -30.766455453734697
rhand -11.689180279221617 -36.509225615425365
rfingers 7.125019999999963
rthumb 14.394713571834286 -65.92650678567512
lclavicle -4.0690662334180733E-16 -4.639743900447587E-16
lhumerus -43.333475977230435 -0.3879443639841256 83.1501288844328
lradius 45.25670282157945
lwrist 1.9467304153306977
lhand -15.595316180742408 -12.171467324725148
lfingers 7.1250199999999335
lthumb 10.547056246047639 16.965327766274587
rfemur -2.78130041394418 1.035057067806627 5.562230581409624
rtibia 8.328526191832035
rfoot -1.568041029877108 -1.3570878392775962
rtoes 0.797479914333914
lfemur -6.511065221879096 -3.5729108766435496 -12.227128443310072
ltibia 27.399401593700937
lfoot -19.282245191116818 7.983746687624569
ltoes -43.35005459122961
208
root 0 0 0 -0.38960132680329684 -2.029830308956881 -3.8813199594736085
lowerback 16.494716162245112 1.1043111600243027 -0.11695924883067821
upperback 0.6841287853325485 1.4475350630133734 0.3290816284043273
thorax -8.58822656951465 0.6857104814019029 0.05109271837963225
lowerneck -7.4672902748837515 -3.2670361172188307 1.2921913891967454
upperneck -5.8220528208661975 -4.242040616414329 1.7489244935598538
head -0.6758135706569366 -2.196947281019387 0.24323970397617944
rclavicle -3.803363184742708E-16 1.641832407076424E-17
rhumerus 12.08036039954493 0.4811402957156794 -39.45958038865444
rradius 118.72118986898184
rwrist -30.77580067459737
rhand -11.686158018612579 -36.52780543872612
rfingers 7.125019999999964
rthumb 14.397566460476256 -65.94456905169152
lclavicle -4.0681523611229106E-16 -4.636185607963916E-16
lhumerus -43.33703590125229 -0.38798781554593875 83.15079862725692
lradius 45.26204563415129
lwrist 1.9448803516085533
lhand -15.591146428473184 -12.184764784086873
lfingers 7.1250199999999335
lthumb 10.551006672177566 16.952700661936085
rfemur -2.781011102247554 1.0350119970766913 5.561783400530725
rtibia 8.327328040795438
rfoot -1.568085317929187 -1.3569723027655374
rtoes 0.797338550201609
lfemur -6.509918475734474 -3.5737748069669184 -12.224412510739812
ltibia 27.396892631400384
lfoot -19.28714234015801 7.988029217740856
ltoes -43.36427805912426
